<?xml version="1.0" encoding="utf-8"?>
<!-- Generator: Adobe Illustrator 16.2.1, SVG Export Plug-In . SVG Version: 6.00 Build 0)  -->
<!DOCTYPE svg PUBLIC "-//W3C//DTD SVG 1.1//EN" "http://www.w3.org/Graphics/SVG/1.1/DTD/svg11.dtd">
<svg version="1.1" id="Layer_1" xmlns="http://www.w3.org/2000/svg" xmlns:xlink="http://www.w3.org/1999/xlink" x="0px" y="0px"
	 width="1180px" height="352px" viewBox="5.275 235.557 1180 352" enable-background="new 5.275 235.557 1180 352"
	 xml:space="preserve">
<g>
	<g id="Group_2" transform="translate(11.547 39.738)">
		<path id="Path_1" fill="#FFFFFF" d="M710.003,218.496v64.241h35.578v47.404h-35.578v59.831c0,7.183,0.703,11.96,2.072,14.298
			c2.104,3.608,5.812,5.412,11.125,5.412c4.775,0,16.201-3.941,24.787-6.715v47.271c-14.699,3.341-29.699,5.111-44.799,5.245
			c-16.102,0-27.961-2.071-35.578-6.214c-7.65-4.142-13.596-10.79-16.904-18.808c-3.674-8.419-5.479-22.049-5.479-40.89v-59.431
			h-23.818v-47.404h23.818v-31.002L710.003,218.496z"/>
		<g id="Group_1" transform="translate(0.347 155.549)">
			<path id="Path_2" fill="#FFFFFF" d="M37.369,336.044h10.356c9.153,0,12.561,5.312,12.561,10.991v1.57
				c0.367,3.474-1.637,6.781-4.877,8.051c3.34,1.403,4.877,4.042,4.877,8.552v2.438c0,7.584-4.109,11.859-13.263,11.859h-9.654
				V336.044z M44.451,353.917h3.207c4.711,0,5.98-2.139,5.98-6.113c0-3.842-1.604-5.88-6.247-5.88h-2.907v11.993H44.451z
				 M44.451,373.326h3.04c5.68,0,6.113-3.04,6.113-7.35c0-4.343-0.901-6.614-6.046-6.614h-3.141L44.451,373.326L44.451,373.326z"/>
			<path id="Path_3" fill="#FFFFFF" d="M77.657,348.571l4.845,19.31h0.134l4.776-19.31h7.283l-10.122,36.38
				c-1.537,5.546-5.546,7.149-9.788,7.149h-1.972v-5.88h1.604c2.84,0,3.742-0.868,5.346-8.084l-9.655-29.565H77.657L77.657,348.571z
				"/>
			<path id="Path_4" fill="#FFFFFF" d="M147.044,348.571h-7.116v-1.402c0-2.873-1.403-5.245-5.011-5.245
				c-3.909,0-4.777,2.739-4.777,5.612c0,3.374,0.334,4.51,4.042,5.812l5.412,1.904c6.247,2.071,7.416,5.546,7.416,11.926
				c0,7.35-3.04,12.762-12.227,12.762c-6.882,0-12.093-4.477-12.093-10.322v-2.339h7.082v1.971c0,2.272,1.403,4.477,5.011,4.477
				c4.777,0,5.145-2.505,5.145-6.48c0-4.644-0.635-5.379-4.108-6.581l-5.078-1.838c-6.113-2.204-7.717-5.746-7.717-11.191
				c0-6.614,4.042-11.926,12.16-11.926c7.082,0,11.792,5.011,11.792,9.855L147.044,348.571L147.044,348.571z"/>
			<path id="Path_5" fill="#FFFFFF" d="M158.502,339.185h7.082v9.421h4.377v4.877h-4.377v17.171c0,2.873,1.236,3.04,4.377,3.04v5.88
				h-2.94c-6.381,0-8.552-3.976-8.552-7.283v-18.841h-3.508v-4.878h3.541V339.185L158.502,339.185z"/>
			<path id="Path_6" fill="#FFFFFF" d="M192.643,376.4h-0.134c-1.47,2.305-4.075,3.642-6.814,3.541c-3.274,0-7.65-1.403-7.65-8.251
				c0-7.083,2.305-10.523,11.191-10.523c0.969,0,1.938,0.134,3.407,0.167v-3.24c0.268-1.771-0.969-3.408-2.706-3.642
				c-0.267-0.033-0.567-0.033-0.835,0c-1.904-0.066-3.607,1.236-4.042,3.106h-6.882c0.134-2.572,1.27-5.011,3.207-6.715
				c2.171-1.804,4.911-2.739,7.717-2.639c5.913,0,10.623,3.308,10.623,9.788v21.581h-7.082V376.4L192.643,376.4z M192.643,366.244
				c-0.635-0.101-1.303-0.167-1.938-0.167c-3.04,0-5.546,1.102-5.546,4.409c-0.133,2.071,1.471,3.842,3.542,3.976
				s3.842-1.47,3.975-3.541c0-0.134,0-0.301,0-0.435L192.643,366.244L192.643,366.244z"/>
			<path id="Path_7" fill="#FFFFFF" d="M211.552,348.571h7.082v3.308c2.539-2.372,5.913-3.675,9.388-3.675v6.614
				c-0.701-0.233-1.403-0.367-2.138-0.367c-2.974,0-7.216,1.637-7.216,6.715v18.407h-7.083L211.552,348.571L211.552,348.571z"/>
			<path id="Path_8" fill="#FFFFFF" d="M237.442,339.185h7.082v9.421h4.376v4.877h-4.376v17.171c0,2.873,1.236,3.04,4.376,3.04v5.88
				h-2.906c-6.381,0-8.552-3.976-8.552-7.283v-18.841h-3.541v-4.878h3.541V339.185L237.442,339.185z"/>
			<path id="Path_9" fill="#FFFFFF" d="M279.401,379.573h-7.083V376.6h-0.133c-1.504,2.205-4.009,3.475-6.648,3.374
				c-3.809,0.234-7.082-2.672-7.316-6.48c-0.033-0.367,0-0.735,0.034-1.103v-23.786h7.082v21.447
				c-0.234,1.805,1.069,3.441,2.873,3.642c0.2,0.033,0.4,0.033,0.602,0c2.639,0,3.541-1.537,3.541-4.276v-20.846h7.082
				L279.401,379.573z"/>
			<path id="Path_10" fill="#FFFFFF" d="M291.828,348.571h7.082v2.807c1.604-2.071,4.109-3.24,6.749-3.174
				c2.438-0.233,4.811,0.902,6.18,2.939c1.002,2.071,1.403,4.377,1.169,6.648v11.792c0,4.477-0.2,6.247-1.102,7.517
				c-1.471,2.005-3.876,3.04-6.314,2.807c-2.572,0.066-5.011-1.103-6.548-3.174h-0.134v15.334h-7.082V348.571z M305.926,358.66
				c0-2.505-1.035-4.209-3.474-4.209c-1.938-0.033-3.542,1.503-3.575,3.44c0,0.134,0,0.268,0.033,0.401v12.026
				c0,1.871,1.504,3.374,3.341,3.374c0.067,0,0.134,0,0.201,0c2.705,0,3.474-1.704,3.474-3.675V358.66z"/>
			<path id="Path_11" fill="#FFFFFF" d="M338.297,357.258c-0.066-1.838-1.604-3.274-3.44-3.174c-0.067,0-0.101,0-0.167,0
				c-1.771-0.134-3.308,1.169-3.475,2.939c0,0.066,0,0.134,0,0.2c0,1.17,0.334,2.271,2.974,3.174l4.176,1.47
				c5.278,1.771,6.948,5.078,6.948,8.753c0,5.145-4.443,9.354-10.557,9.354c-5.545,0-10.289-3.24-10.557-9.354h6.648
				c0.233,2.138,2.171,3.708,4.343,3.475c1.771-0.201,3.207-1.57,3.44-3.341c0-1.704-0.835-2.873-3.541-3.775l-3.407-1.103
				c-4.443-1.47-7.149-4.409-7.149-8.552c0-5.245,4.711-9.054,10.423-9.054c5.746,0,9.922,3.909,9.989,9.054L338.297,357.258
				L338.297,357.258z"/>
			<path id="Path_12" fill="#FFFFFF" d="M356.504,373.326h7.082v6.247h-7.082V373.326z"/>
			<path id="Path_13" fill="#FFFFFF" d="M395.957,336.044h21.113v5.88h-14.031v13.195h12.228v5.88h-12.228v18.574h-7.082V336.044z"
				/>
			<path id="Path_14" fill="#FFFFFF" d="M425.956,358.994c-0.134-2.171,0.334-4.343,1.303-6.28
				c4.043-5.111,11.459-5.946,16.57-1.904c0.701,0.568,1.336,1.203,1.904,1.904c1.002,1.938,1.437,4.109,1.303,6.28v10.189
				c0.134,2.172-0.334,4.343-1.303,6.313c-4.043,5.111-11.459,5.947-16.57,1.904c-0.701-0.567-1.336-1.202-1.904-1.904
				c-1.002-1.938-1.437-4.108-1.303-6.313V358.994z M433.038,370.152c0,1.904,1.57,3.475,3.475,3.475s3.475-1.57,3.475-3.475v-12.16
				c0-1.904-1.57-3.475-3.475-3.475s-3.475,1.57-3.475,3.475V370.152z"/>
			<path id="Path_15" fill="#FFFFFF" d="M458.862,348.571h7.082v3.308c2.539-2.372,5.913-3.675,9.387-3.675v6.614
				c-0.701-0.233-1.436-0.367-2.171-0.367c-2.974,0-7.216,1.637-7.216,6.715v18.407h-7.082V348.571z"/>
			<path id="Path_16" fill="#FFFFFF" d="M527.613,348.571h-7.083v-1.402c0-2.873-1.369-5.245-5.011-5.245
				c-3.908,0-4.776,2.739-4.776,5.612c0,3.374,0.334,4.51,4.042,5.812l5.411,1.904c6.247,2.071,7.417,5.546,7.417,11.926
				c0,7.35-3.04,12.762-12.228,12.762c-6.881,0-12.093-4.477-12.093-10.322v-2.339h7.115v1.971c0,2.272,1.403,4.477,5.012,4.477
				c4.776,0,5.145-2.505,5.145-6.48c0-4.644-0.635-5.379-4.109-6.581l-5.078-1.838c-6.113-2.204-7.717-5.746-7.717-11.191
				c0-6.614,4.042-11.926,12.16-11.926c7.082,0,11.793,5.011,11.793,9.855V348.571L527.613,348.571z"/>
			<path id="Path_17" fill="#FFFFFF" d="M539.104,339.185h7.083v9.421h4.376v4.877h-4.376v17.171c0,2.873,1.235,3.04,4.376,3.04
				v5.88h-2.906c-6.381,0-8.553-3.976-8.553-7.283v-18.841h-3.541v-4.878h3.541V339.185L539.104,339.185z"/>
			<path id="Path_18" fill="#FFFFFF" d="M573.247,376.4h-0.134c-1.47,2.305-4.076,3.642-6.815,3.541c-3.273,0-7.65-1.403-7.65-8.251
				c0-7.083,2.306-10.523,11.191-10.523c0.969,0,1.938,0.134,3.408,0.167v-3.24c0.267-1.771-0.969-3.408-2.706-3.642
				c-0.268-0.033-0.568-0.033-0.835,0c-1.904-0.066-3.608,1.236-4.043,3.106h-6.882c0.134-2.572,1.27-5.011,3.207-6.715
				c2.172-1.804,4.911-2.739,7.718-2.639c5.912,0,10.623,3.308,10.623,9.788v21.581h-7.082V376.4L573.247,376.4z M573.247,366.244
				c-0.635-0.101-1.304-0.167-1.938-0.167c-3.041,0-5.546,1.102-5.546,4.409c-0.134,2.071,1.47,3.842,3.541,3.976
				s3.842-1.47,3.976-3.541c0-0.134,0-0.301,0-0.435L573.247,366.244L573.247,366.244z"/>
			<path id="Path_19" fill="#FFFFFF" d="M592.156,348.571h7.082v3.308c2.539-2.372,5.912-3.675,9.387-3.675v6.614
				c-0.701-0.233-1.438-0.367-2.172-0.367c-2.973,0-7.215,1.637-7.215,6.715v18.407h-7.082V348.571z"/>
			<path id="Path_20" fill="#FFFFFF" d="M618.045,339.185h7.082v9.421h4.377v4.877h-4.377v17.171c0,2.873,1.236,3.04,4.377,3.04
				v5.88h-2.906c-6.381,0-8.553-3.976-8.553-7.283v-18.841h-3.541v-4.878h3.541V339.185L618.045,339.185z"/>
			<path id="Path_21" fill="#FFFFFF" d="M660.004,379.573h-7.082V376.6h-0.133c-1.504,2.205-4.01,3.475-6.648,3.374
				c-3.809,0.234-7.082-2.672-7.316-6.48c-0.033-0.367,0-0.735,0.033-1.103v-23.786h7.082v21.447
				c-0.232,1.805,1.07,3.441,2.873,3.642c0.201,0.033,0.402,0.033,0.602,0c2.639,0,3.541-1.537,3.541-4.276v-20.846h7.082
				L660.004,379.573z"/>
			<path id="Path_22" fill="#FFFFFF" d="M672.431,348.571h7.082v2.807c1.604-2.071,4.109-3.24,6.748-3.174
				c2.439-0.233,4.811,0.902,6.182,2.939c1.002,2.071,1.402,4.377,1.168,6.648v11.792c0,4.477-0.199,6.247-1.102,7.517
				c-1.471,2.005-3.875,3.04-6.314,2.807c-2.572,0.066-5.012-1.136-6.514-3.174h-0.135v15.334h-7.082v-43.496H672.431z
				 M686.529,358.66c0-2.505-1.035-4.209-3.475-4.209c-1.938-0.033-3.541,1.503-3.541,3.44c0,0.134,0,0.268,0.033,0.401v12.026
				c0,1.871,1.504,3.374,3.342,3.374c0.066,0,0.133,0,0.199,0c2.707,0,3.475-1.704,3.475-3.675V358.66H686.529z"/>
			<path id="Path_23" fill="#FFFFFF" d="M718.9,357.258c-0.066-1.838-1.604-3.241-3.441-3.174c-0.066,0-0.1,0-0.166,0
				c-1.771-0.134-3.307,1.169-3.475,2.939c0,0.066,0,0.134,0,0.2c0,1.17,0.334,2.271,2.973,3.174l4.176,1.47
				c5.279,1.771,6.949,5.078,6.949,8.753c0,5.145-4.443,9.354-10.557,9.354c-5.545,0-10.289-3.24-10.557-9.354h6.648
				c0.234,2.138,2.172,3.708,4.342,3.44c1.771-0.2,3.174-1.569,3.441-3.34c0-1.704-0.834-2.873-3.541-3.775l-3.408-1.103
				c-4.441-1.47-7.148-4.409-7.148-8.552c0-5.245,4.711-9.054,10.424-9.054c5.779,0,9.922,3.909,9.988,9.054L718.9,357.258
				L718.9,357.258z"/>
			<path id="Path_24" fill="#FFFFFF" d="M737.107,373.326h7.082v6.247h-7.082V373.326z"/>
		</g>
		<path id="Path_25" fill="#FFFFFF" d="M204.426,218.496L168.213,362.68l-36.48-144.184H37.091v236.954h58.93V274.753
			l45.333,180.697h53.317l45.399-180.697v180.697H299V218.496H204.426z"/>
		<path id="Path_26" fill="#FFFFFF" d="M454.909,308.027h-97.214c0.869,8.084,2.974,14.098,6.314,18.039
			c4.443,5.579,11.225,8.72,18.34,8.52c4.777,0,9.454-1.27,13.597-3.709c3.308-2.204,6.181-5.011,8.452-8.251l47.771,4.543
			c-7.316,13.162-16.136,22.616-26.458,28.329c-10.323,5.713-25.122,8.586-44.431,8.586c-16.771,0-29.933-2.439-39.554-7.35
			c-10.056-5.312-18.341-13.43-23.886-23.352c-6.314-10.656-9.488-23.185-9.454-37.583c0-20.478,6.347-37.081,19.008-49.742
			s30.167-19.008,52.482-19.008c18.106,0,32.404,2.839,42.894,8.519c10.356,5.545,18.708,14.164,23.953,24.688
			c5.479,10.79,8.218,24.82,8.218,42.092L454.909,308.027L454.909,308.027z M405.601,283.94c-0.969-9.721-3.474-16.67-7.583-20.879
			c-9.32-8.786-23.986-8.318-32.771,1.002c-0.669,0.702-1.27,1.437-1.838,2.205c-2.939,3.942-4.811,9.821-5.612,17.639
			L405.601,283.94z"/>
		<path id="Path_27" fill="#FFFFFF" d="M612.857,308.027h-97.214c0.868,8.084,2.974,14.098,6.313,18.039
			c4.443,5.546,11.226,8.72,18.341,8.52c4.777,0,9.454-1.27,13.597-3.709c3.308-2.204,6.18-5.011,8.452-8.251l47.772,4.543
			c-7.316,13.162-16.137,22.616-26.459,28.329c-10.323,5.713-25.155,8.586-44.465,8.586c-16.771,0-29.933-2.439-39.554-7.35
			c-10.055-5.312-18.34-13.43-23.886-23.352c-6.313-10.656-9.454-23.185-9.454-37.583c0-20.478,6.348-37.081,19.009-49.742
			s30.166-19.008,52.481-19.008c18.106,0,32.405,2.839,42.895,8.519c10.356,5.545,18.708,14.164,23.954,24.688
			c5.479,10.79,8.25,24.82,8.217,42.092V308.027L612.857,308.027z M563.515,283.94c-0.969-9.721-3.475-16.67-7.583-20.879
			c-4.243-4.276-10.123-6.548-16.136-6.28c-7.383-0.167-14.332,3.407-18.474,9.521c-2.94,3.942-4.812,9.822-5.613,17.639H563.515z"
			/>
		<path id="Path_28" fill="#FFFFFF" d="M460.087,455.451c-87.559,0-141.043-55.589-143.281-57.928
			c-4.443-4.609-4.343-11.959,0.301-16.436c0.301-0.268,0.602-0.535,0.902-0.802c5.512-4.443,13.529-3.976,18.474,1.103
			c0.802,0.835,48.474,49.676,123.604,49.676c75.466,0,124.24-49.275,124.709-49.776c5.01-5.011,13.027-5.379,18.506-0.902
			c5.012,4.009,5.779,11.325,1.771,16.303c-0.234,0.301-0.502,0.602-0.77,0.869C602.032,399.962,547.546,455.451,460.087,455.451z"
			/>
	</g>
	<path id="Path_30" fill="#FFFFFF" d="M780.884,325.489c0,0-14.699,41.224-11.826,44.097s44.098-11.826,44.098-11.826
		L780.884,325.489z"/>
	<g>
		<rect x="817.431" y="290.495" fill="#FFFFFF" width="20.078" height="4.243"/>
		<rect x="1059.363" y="267.145" fill="#FFFFFF" width="13.797" height="3.708"/>
		<rect x="1059.363" y="275.329" fill="#FFFFFF" width="13.797" height="3.607"/>
		<path fill="#FFFFFF" d="M928.81,287.121c1.67-2.271,3.174-4.677,4.51-7.148h-23.686c1.537,2.204,2.807,4.576,3.775,7.049
			l-3.607,0.969h21.914L928.81,287.121z"/>
		<rect x="822.343" y="317.688" fill="#FFFFFF" width="17.271" height="7.216"/>
		<path fill="#FFFFFF" d="M837.509,299.415h-20.145c-0.066,1.437-0.166,2.973-0.234,4.51l20.379-0.033V299.415z"/>
		<polygon fill="#FFFFFF" points="1073.195,283.347 1059.396,283.347 1059.396,287.589 1073.195,286.319 		"/>
		<path fill="#FFFFFF" d="M1141.845,346.502v-98.784c0.033-6.614-5.346-11.992-11.961-11.992H791.241
			c-6.615,0-11.961,5.378-11.961,11.992v98.817c0,6.614,5.379,11.96,11.994,11.96h338.678c6.613,0,11.959-5.379,11.959-11.993
			H1141.845z M1085.921,264.472h23.92l1.135-0.334l4.645,2.238c-2.172,5.612-5.545,10.656-9.889,14.866
			c3.941,2.405,7.717,5.077,11.324,7.95l-5.211,5.145c-3.641-3.073-7.482-5.879-11.492-8.418c-4.543,3.44-9.588,6.18-14.932,8.185
			c-1.236-1.904-2.641-3.675-4.176-5.312c4.676-1.57,9.119-3.775,13.162-6.581c-3.609-2.172-7.217-4.243-10.59-5.946l4.943-4.41
			c3.475,1.67,7.316,3.775,11.158,5.946c2.338-2.171,4.377-4.61,6.08-7.316h-20.078V264.472z M846.195,333.356h-6.58v-2.739h-17.271
			v2.906h-6.348v-20.145c-0.969,6.181-3.008,12.127-6.08,17.572c-2.004-1.304-4.176-2.339-6.414-3.141
			c6.246-9.889,6.982-23.519,6.982-32.604v-10.089h33.807v24.152h-27.727c-0.168,1.036-0.334,2.071-0.469,3.141h30.1V333.356z
			 M845.159,282.344c-3.842-3.14-11.092-7.884-17.271-11.792c-2.105,2.271-4.377,4.443-6.748,6.414h15.334v4.644h-16.637v-3.475
			c-3.842,3.073-7.951,5.779-12.26,8.118c-1.104-2.438-2.439-4.777-4.01-6.982c8.986-4.176,18.072-10.823,23.051-18.641l6.814,2.572
			c-0.4,0.735-0.902,1.37-1.369,2.071c6.113,3.607,13.162,7.951,16.938,10.823L845.159,282.344z M852.208,268.881h6.982v44.164
			h-6.982V268.881z M874.122,324.604c0,4.343-0.969,6.515-3.541,7.617c-2.473,1.303-6.648,1.536-13.162,1.536
			c-0.5-2.572-1.303-5.078-2.404-7.449c4.576,0.167,8.752,0.167,10.021,0.066c1.369,0,1.838-0.4,1.838-1.837V260.63h7.248V324.604z
			 M890.359,331.686c-1.303-1.971-2.807-3.809-4.477-5.445c8.117-1.202,17.807-4.176,22.951-7.449l5.445,2.539
			C908.665,325.673,898.611,329.849,890.359,331.686z M951.159,331.586c-4.979-2.473-14.766-6.749-22.082-9.555l4.811-3.775
			c7.082,2.572,16.869,6.414,22.248,8.987L951.159,331.586z M956.271,315.35h-31.637v18.642h-7.316V315.35H886.15v-6.247h31.168
			v-4.811h-23.686v-5.612h23.686v-4.811h-27.627v-5.879h16.135c-0.969-2.405-2.137-4.711-3.541-6.915l4.645-1.137H886.45v-5.912
			h11.959c-1.57-3.809-3.541-7.45-5.846-10.824l6.514-2.238c2.572,3.574,4.744,7.416,6.414,11.492l-4.242,1.604h8.986v-13.797h6.982
			v13.797h7.951v-13.797h7.082v13.797h8.752l-3.141-1.036c2.238-3.774,4.143-7.75,5.613-11.893l7.717,2.005
			c-2.039,3.741-4.277,7.383-6.648,10.924h11.492v5.946H934.99l6.281,1.604c-1.771,2.405-3.609,4.576-5.213,6.414h17.006v5.846
			h-28.43v4.811h24.654v5.612h-24.654v4.811h31.637V315.35z M963.753,312.777c6.916-8.352,11.225-22.249,13.096-32.905l8.418,1.537
			c-2.807,11.959-7.482,26.658-14.699,35.711C968.431,315.483,966.124,314.047,963.753,312.777z M1005.745,323.969
			c0,4.978-1.203,7.216-4.344,8.519c-3.207,1.203-8.352,1.437-16.068,1.437c-0.635-2.806-1.637-5.479-2.973-8.018
			c5.613,0.234,11.324,0.234,12.996,0.167c1.604-0.066,2.238-0.567,2.238-2.071v-62.47h8.15V323.969z M1031.236,317.621
			c-1.672-9.387-7.951-24.253-14.533-35.711l7.082-2.906c6.748,11.091,13.33,25.522,15.334,35.177L1031.236,317.621z
			 M1045.032,288.825c2.238-0.167,4.91-0.401,7.717-0.635v-21.046h-6.182v-5.445h38.553v5.445h-5.213v28.161h-6.646l-0.066-3.842
			c-9.855,1.136-19.744,2.104-27.295,2.807L1045.032,288.825z M1069.552,327.477c-2.506-3.308-5.244-6.447-8.184-9.388
			c-3.107,4.744-7.217,8.786-12.061,11.793c-0.635-2.405-1.537-4.744-2.639-6.982c6.682-3.675,11.758-9.688,14.297-16.87
			l5.547,1.637c-0.635,1.838-1.338,3.642-2.172,5.379c3.508,3.14,6.748,6.548,9.721,10.188L1069.552,327.477z M1085.353,333.924
			h-7.449v-30.667c-8.018,0.802-16.135,1.27-23.117,1.604c-1.17-2.339-2.539-4.544-4.109-6.648
			c17.873-0.066,35.713-1.503,53.385-4.242l5.713,4.944c-6.748,1.369-15.4,2.639-24.422,3.708V333.924z M1113.081,327.911
			c-4.477-3.04-8.252-7.049-10.99-11.727c-3.008,5.111-7.082,9.488-11.961,12.862c-0.734-2.372-1.637-4.677-2.738-6.915
			c6.881-4.477,11.926-11.292,14.23-19.176l5.512,1.503c-0.533,1.972-1.201,3.909-2.004,5.779
			c2.973,5.245,7.316,9.555,12.594,12.461C1115.954,324.236,1114.384,325.974,1113.081,327.911z"/>
	</g>
</g>
</svg>
